<svg width="101" height="101" viewBox="0 0 101 101" fill="none" xmlns="http://www.w3.org/2000/svg">
<path d="M56.3848 1.75C56.4497 1.74855 56.5133 1.76793 56.5664 1.80469C56.6172 1.83998 56.6551 1.89011 56.6768 1.94727L60.0293 13.0312L60.3018 13.9326L61.2031 14.2012C63.8467 14.9901 66.3956 16.0693 68.8018 17.418L69.6367 17.8857L70.4814 17.4346L80.7559 11.9492C80.814 11.9184 80.881 11.907 80.9463 11.917C81.0116 11.927 81.0712 11.9583 81.1172 12.0049L81.1221 12.0088L89.1768 20.0889L89.1865 20.0996C89.233 20.1455 89.2636 20.2046 89.2734 20.2686C89.283 20.3312 89.2722 20.3956 89.2432 20.4521L83.7168 30.7881L83.2734 31.6182L83.7207 32.4463C85.0079 34.8265 86.0337 37.3387 86.7793 39.9395L87.043 40.8613L87.9609 41.1348L99.0977 44.4551C99.14 44.4799 99.1781 44.5112 99.2041 44.5527C99.2369 44.6051 99.2529 44.6661 99.25 44.7275L99.248 44.7695V56.2832C99.2476 56.3473 99.2269 56.4101 99.1885 56.4619C99.1507 56.5128 99.097 56.5497 99.0361 56.5693L87.6943 59.9326L86.7822 60.2031L86.5137 61.1152C85.7598 63.672 84.7343 66.1414 83.4551 68.4805L83 69.3115L83.4482 70.1465L89.0391 80.5771V80.5781C89.0696 80.6357 89.0811 80.7016 89.0713 80.7656C89.0614 80.8296 89.0308 80.8887 88.9844 80.9346L88.9766 80.9424L80.9229 88.9883L80.915 88.9961C80.8691 89.0425 80.8093 89.073 80.7441 89.083C80.6787 89.093 80.611 89.0817 80.5527 89.0508L70.0762 83.4639L69.2461 83.0215L68.4189 83.4697C66.0864 84.7345 63.6253 85.7481 61.0781 86.4932L60.1621 86.7617L59.8916 87.6758L56.5273 99.0352C56.5084 99.0965 56.4701 99.1508 56.418 99.1895C56.3657 99.2282 56.3018 99.2497 56.2363 99.25H44.8623C44.7968 99.2497 44.7329 99.2282 44.6807 99.1895C44.6286 99.1508 44.5902 99.0965 44.5713 99.0352L41.207 87.708L40.9346 86.791L40.0146 86.5254L39.0557 86.2344C36.827 85.5264 34.6687 84.612 32.6094 83.502L31.7832 83.0566L30.9551 83.498L20.5459 89.0508C20.4878 89.0816 20.4207 89.0929 20.3555 89.083C20.2901 89.073 20.2297 89.0426 20.1836 88.9961L20.1758 88.9883L12.1221 80.9424L12.1143 80.9346C12.0679 80.8887 12.0372 80.8295 12.0273 80.7656C12.0175 80.7015 12.0291 80.6356 12.0596 80.5781L12.0654 80.5674L17.5918 69.9961L18.0332 69.1523L17.5635 68.3232C16.2201 65.9503 15.1409 63.4375 14.3447 60.8301L14.0713 59.9336L13.1738 59.665L1.96289 56.3008C1.90142 56.2813 1.84765 56.2437 1.80957 56.1924C1.78074 56.1535 1.76172 56.1085 1.75391 56.0615L1.75 56.0137V44.6504C1.75031 44.5862 1.77106 44.5236 1.80957 44.4717C1.84807 44.4198 1.90249 44.3816 1.96484 44.3623L1.96387 44.3613L13.1094 40.998L14.0127 40.7256L14.2812 39.8213C15.0689 37.1696 16.1482 34.6131 17.5 32.1992L17.9707 31.3594L17.5127 30.5117L12.0596 20.4229C12.029 20.3653 12.0176 20.2995 12.0273 20.2354C12.0372 20.1712 12.0676 20.1115 12.1143 20.0654L20.2949 12.0947L20.3184 12.0713C20.3644 12.0249 20.425 11.9943 20.4902 11.9844C20.539 11.977 20.5886 11.9814 20.6348 11.9971L20.6807 12.0166L30.7793 17.4648L31.624 17.9209L32.4619 17.4531C34.8887 16.1003 37.4592 15.022 40.125 14.2373L41.0312 13.9697L41.3057 13.0664L44.6729 1.96484C44.6919 1.90347 44.73 1.84921 44.7822 1.81055C44.8215 1.78153 44.8671 1.76276 44.915 1.75488L44.9639 1.75098H56.3652L56.3848 1.75ZM58.4121 31.7764C54.7059 30.2428 50.6278 29.8412 46.6934 30.623C42.7589 31.4049 39.1446 33.3348 36.3076 36.1689C33.4707 39.0031 31.5387 42.6143 30.7559 46.5459C29.973 50.4776 30.3746 54.5534 31.9102 58.2568C33.4457 61.9601 36.0461 65.1249 39.3818 67.3516C42.7175 69.5782 46.6389 70.7666 50.6504 70.7666C56.0297 70.7666 61.1889 68.6316 64.9932 64.8311C68.7974 61.0305 70.9355 55.8755 70.9355 50.5C70.9355 46.4915 69.7456 42.573 67.5166 39.2402C65.2875 35.9074 62.1185 33.3101 58.4121 31.7764Z" fill="url(#paint0_linear_15_45)" stroke="#5B5D5E" stroke-width="3.5"/>
<defs>
<linearGradient id="paint0_linear_15_45" x1="36.3771" y1="8.98729" x2="79.1737" y2="89.4449" gradientUnits="userSpaceOnUse">
<stop stop-color="#B9BFC0"/>
<stop offset="1" stop-color="#899598"/>
</linearGradient>
</defs>
</svg>
