<svg width="23" height="18" viewBox="0 0 23 18" fill="none" xmlns="http://www.w3.org/2000/svg">
<path d="M18 0H2C0.89543 0 0 0.89543 0 2V14C0 15.1046 0.89543 16 2 16H18C19.1046 16 20 15.1046 20 14V2C20 0.89543 19.1046 0 18 0Z" fill="url(#paint0_linear_5_1420)"/>
<path d="M19 2H2C0.89543 2 0 2.89543 0 4V16C0 17.1046 0.89543 18 2 18H19C20.1046 18 21 17.1046 21 16V4C21 2.89543 20.1046 2 19 2Z" fill="url(#paint1_linear_5_1420)"/>
<path d="M15 10C15 11.6568 16.3432 13 18 13L23 12.9987L22.9987 7H18C16.3432 7 15 8.34315 15 10Z" fill="url(#paint2_radial_5_1420)"/>
<path d="M18 11C18.5523 11 19 10.5523 19 10C19 9.44772 18.5523 9 18 9C17.4477 9 17 9.44772 17 10C17 10.5523 17.4477 11 18 11Z" fill="#FF4900"/>
<defs>
<linearGradient id="paint0_linear_5_1420" x1="-6.27551" y1="24.5804" x2="-2.20044" y2="-0.359542" gradientUnits="userSpaceOnUse">
<stop stop-color="#FFB300"/>
<stop offset="0.999999" stop-color="#FF4900"/>
</linearGradient>
<linearGradient id="paint1_linear_5_1420" x1="0" y1="2" x2="13.5474" y2="21.7099" gradientUnits="userSpaceOnUse">
<stop stop-color="#FFB300"/>
<stop offset="1" stop-color="#FF4900"/>
</linearGradient>
<radialGradient id="paint2_radial_5_1420" cx="0" cy="0" r="1" gradientUnits="userSpaceOnUse" gradientTransform="translate(18.0729 8.77136) rotate(50.8861) scale(4.88468 6.5129)">
<stop stop-color="#FFDB00"/>
<stop offset="1" stop-color="#FFBB00"/>
</radialGradient>
</defs>
</svg>
